<svg width="124" height="30" viewBox="0 0 124 30" fill="none" xmlns="http://www.w3.org/2000/svg">
<g clip-path="url(#clip0_1299_48254)">
<rect x="0.5" y="0.9375" width="28.125" height="28.125" rx="4.6875" fill="#F05A28"/>
<rect x="0.5" y="0.9375" width="16.4062" height="14.0625" fill="#F09828"/>
<rect x="0.5" y="0.9375" width="9.375" height="4.6875" fill="#F0C228"/>
<rect x="0.5" y="19.6875" width="9.375" height="9.375" fill="#F07828"/>
<path d="M8.08245 21.9025H4.11682V7.76971H8.08245V21.9025ZM16.7108 22.1135C13.4623 22.1135 11.6694 20.0252 11.6694 16.5869C11.6694 13.1275 13.4202 11.0603 16.542 11.0603C19.0522 11.0603 20.2334 12.2416 20.5498 14.0135H20.7608V7.76971H24.7264V21.9025H21.0139V19.0338H20.803C20.4655 21.1432 19.1998 22.1135 16.7108 22.1135ZM15.6772 16.5869C15.6772 18.0002 16.31 18.4853 18.1452 18.4853C19.917 18.4853 20.7608 18.1478 20.7608 16.608V16.4603C20.7608 14.9627 19.917 14.6674 18.1452 14.6674C16.31 14.6674 15.6772 15.1736 15.6772 16.5869Z" fill="#FFEAD5"/>
<rect x="13.3906" y="21.1523" width="4.6875" height="7.91016" fill="#F05A28"/>
</g>
<rect x="6.82349" y="3.03888" width="3.51562" height="3.51562" fill="white"/>
<rect x="17.1992" y="24.3881" width="2.34375" height="2.34375" fill="white"/>
<path d="M37.5289 22.1797C33.9219 22.1797 31.3906 20.6398 31.3906 16.6531C31.3906 13.1937 33.9008 11.1266 37.4445 11.1266C41.1148 11.1266 43.4563 12.9617 43.4563 16.3789C43.4563 16.7375 43.4352 17.0117 43.393 17.3914H35.0609C35.1242 18.6781 35.6938 19.0367 37.3813 19.0367C38.9844 19.0367 39.4063 18.7625 39.4063 18.1297V17.8977H43.3719V18.1508C43.3719 20.5133 41.1148 22.1797 37.5289 22.1797ZM37.3602 14.1641C35.9047 14.1641 35.293 14.4805 35.1242 15.3875H39.6172C39.4695 14.4805 38.8367 14.1641 37.3602 14.1641ZM50.5924 21.9688H46.6267V11.3375H50.3392V14.5648H50.5502C50.7822 12.793 51.9424 11.1266 54.79 11.1266C57.6588 11.1266 59.0088 12.8562 59.0088 15.1555V21.9688H55.0431V16.6109C55.0431 15.1344 54.4947 14.6703 52.765 14.6703C51.0142 14.6703 50.5924 15.1133 50.5924 16.4844V21.9688ZM70.2428 21.9688H67.4585C64.8007 21.9688 63.2186 20.682 63.2186 17.9187V14.5859H61.6577V11.3375H63.2186V9.50234H67.1842V11.3375H70.2428V14.5859H67.1842V17.3492C67.1842 18.193 67.4374 18.4039 68.3444 18.4039H70.2428V21.9688ZM76.7371 22.1797C74.3324 22.1797 72.9824 21.0828 72.9824 19.2687C72.9824 17.7711 74.016 16.6953 76.4207 16.4633L80.7449 16.0414V15.8305C80.7449 14.7547 80.2808 14.5859 78.8675 14.5859C77.5597 14.5859 77.159 14.8391 77.159 15.725V15.8094H73.1933V15.7672C73.1933 12.9406 75.5558 11.1266 79.1629 11.1266C82.8754 11.1266 84.6683 12.9406 84.6683 15.9148V21.9688H80.9558V19.7328H80.7449C80.3441 21.2305 79.0363 22.1797 76.7371 22.1797ZM76.9691 19.0156C76.9691 19.3531 77.3066 19.4164 77.9183 19.4164C79.8379 19.4164 80.6183 19.1844 80.7238 18.2352L77.4754 18.6148C77.1168 18.657 76.9691 18.7836 76.9691 19.0156ZM91.6657 21.9688H87.9532V7.83594H91.9188V14.0797H92.1297C92.4462 12.3078 93.6274 11.1266 96.1376 11.1266C99.2594 11.1266 101.01 13.1937 101.01 16.6531C101.01 20.0914 99.2172 22.1797 95.9688 22.1797C93.4797 22.1797 92.2141 21.2094 91.8766 19.1H91.6657V21.9688ZM91.9188 16.6742C91.9188 18.2141 92.7626 18.5516 94.5344 18.5516C96.3696 18.5516 97.0024 18.0664 97.0024 16.6531C97.0024 15.2398 96.3696 14.7336 94.5344 14.7336C92.7626 14.7336 91.9188 15.0289 91.9188 16.5266V16.6742ZM108.139 21.9688H104.173V7.83594H108.139V21.9688ZM117.442 22.1797C113.835 22.1797 111.304 20.6398 111.304 16.6531C111.304 13.1937 113.814 11.1266 117.358 11.1266C121.028 11.1266 123.369 12.9617 123.369 16.3789C123.369 16.7375 123.348 17.0117 123.306 17.3914H114.974C115.037 18.6781 115.607 19.0367 117.294 19.0367C118.898 19.0367 119.319 18.7625 119.319 18.1297V17.8977H123.285V18.1508C123.285 20.5133 121.028 22.1797 117.442 22.1797ZM117.273 14.1641C115.818 14.1641 115.206 14.4805 115.037 15.3875H119.53C119.383 14.4805 118.75 14.1641 117.273 14.1641Z" fill="#FFEAD5"/>
<defs>
<clipPath id="clip0_1299_48254">
<rect x="0.5" y="0.9375" width="28.125" height="28.125" rx="4.6875" fill="white"/>
</clipPath>
</defs>
</svg>
